<svg version="1.1" xmlns="http://www.w3.org/2000/svg" xmlns:xlink="http://www.w3.org/1999/xlink" width="317.10396" height="120.55266" viewBox="0,0,317.10396,120.55266"><g transform="translate(-81.44802,-119.72367)"><g data-paper-data="{&quot;isPaintingLayer&quot;:true}" stroke="none" stroke-width="1" stroke-linejoin="miter" stroke-miterlimit="10" stroke-dasharray="" stroke-dashoffset="0" style="mix-blend-mode: normal"><g fill-rule="evenodd" stroke-linecap="square"><g><path d="M96.5171,134.79274h286.96579v90.41449h-286.96579z" fill="#fa9ab9"/><path d="M81.44802,119.72367h317.10394l-15.06906,15.06909h-286.96579z" fill="#fbaec7"/><path d="M81.44802,119.72367l15.06908,15.06909v90.41449l-15.06908,15.06908z" fill="#fcc2d5"/><path d="M398.55198,119.72367v120.55264l-15.06907,-15.06908v-90.41448z" fill="#955c6e"/><path d="M81.44802,119.72367h317.10394v120.55264h-317.10394zM96.5171,134.79275h286.96579v90.41449h-286.96579zM81.44802,119.72367l15.06908,15.06909M81.44802,240.27631l15.06908,-15.06908M398.55194,119.72367l-15.06907,15.06909M398.55194,240.2763l-15.06907,-15.06908" fill-opacity="0" fill="#000000"/><path d="M90.07468,135.36953h299.07524v89.2609h-299.07524z" fill-opacity="0" fill="#000000"/></g><path d="M81.44802,240.27631l15.06908,-15.06908h286.96579l15.06906,15.06908z" fill="#c77b93"/></g><path d="" fill="#965c6f" fill-rule="nonzero" stroke-linecap="butt"/><path d="" fill="#965c6f" fill-rule="nonzero" stroke-linecap="butt"/><path d="" fill="#965c6f" fill-rule="nonzero" stroke-linecap="butt"/><path d="" fill="#965c6f" fill-rule="nonzero" stroke-linecap="butt"/><g fill="#965c6f" fill-rule="nonzero" stroke-linecap="butt"><path d="M247.82261,158.92235c2.71027,0 5.14953,0.54622 7.31776,1.63868c2.17656,1.09245 3.8903,2.64356 5.14119,4.65334c1.25923,2.00978 1.88886,4.39483 1.88886,7.15514c0,2.75197 -0.62962,5.13285 -1.88885,7.14263c-1.2509,2.00978 -2.96462,3.56089 -5.14119,4.65334c-2.16823,1.09245 -4.60747,1.63868 -7.31775,1.63868h-8.5812v15.88638l-8.28094,-0.00001v-42.76819h8.28094v0.00001zM246.95948,179.0618c1.30093,0 2.47678,-0.26268 3.52753,-0.78806c1.05909,-0.53372 1.89303,-1.29676 2.5018,-2.28914c0.60876,-0.99238 0.91316,-2.19741 0.91316,-3.61509c0,-1.38433 -0.30439,-2.58103 -0.91315,-3.59009c-0.60876,-1.01739 -1.44271,-1.78878 -2.5018,-2.31416c-1.05075,-0.52538 -2.2266,-0.78806 -3.52753,-0.78806h-7.71806v13.3846z"/><path d="M278.54733,202.30348c-2.67692,0 -5.09115,-0.66715 -7.24269,-2.00144c-2.15154,-1.34264 -3.83608,-3.16895 -5.05363,-5.47893c-1.21755,-2.31834 -1.82631,-4.91602 -1.82631,-7.79309c0,-2.91876 0.60876,-5.53314 1.82631,-7.84312c1.21755,-2.31833 2.90208,-4.14464 5.05363,-5.47893c2.15154,-1.34263 4.56578,-2.01394 7.2427,-2.01394c2.10984,0 3.99454,0.42531 5.65406,1.27592c1.10192,0.56481 2.05677,1.27852 2.86455,2.14114v-2.80413h7.90567v29.38359l-7.90567,-0.00002v-2.85283c-0.80778,0.85349 -1.76263,1.57094 -2.86454,2.15236c-1.65952,0.87563 -3.54422,1.31345 -5.65406,1.31345zM279.99837,194.93569c2.23493,0 4.0404,-0.73803 5.41639,-2.21408c1.38432,-1.4844 2.07649,-3.40244 2.07649,-5.75413c0,-1.54277 -0.3169,-2.91042 -0.95068,-4.10294c-0.62545,-1.20086 -1.49691,-2.13487 -2.61437,-2.80201c-1.11747,-0.66714 -2.42674,-1.00072 -3.92782,-1.00072c-1.45938,0 -2.7478,0.33358 -3.86527,1.00072c-1.10912,0.66714 -1.98059,1.60115 -2.61437,2.80201c-0.62545,1.19252 -0.93817,2.56017 -0.93817,4.10294c0,1.58447 0.31273,2.97714 0.93818,4.178c0.63378,1.19253 1.50525,2.12235 2.61438,2.78951c1.11747,0.66715 2.40589,1.00072 3.86528,1.00072z"/><path d="M126.55982,201.69053v-5.77915h0.00001l21.35276,-29.6963l-20.07686,-0.00001v-7.29273h31.02226v5.77915h-0.00001l-21.34376,29.68379h20.86843v7.30524z"/><path d="M345.47195,201.69053v-16.84959c0,-1.74291 -0.55039,-3.1606 -1.65118,-4.25305c-1.09245,-1.10079 -2.51014,-1.65118 -4.25305,-1.65118c-1.13415,0 -2.14737,0.24601 -3.03968,0.73803c-0.8923,0.48368 -1.59281,1.17167 -2.10151,2.06399c-0.5087,0.8923 -0.76304,1.92638 -0.76304,3.10223l-0.00002,-0.00001v16.84959l-7.96822,-0.00001v-43.99407h7.96822v17.31114c0.69801,-0.72039 1.49859,-1.33706 2.40174,-1.85002c1.72624,-0.9757 3.70683,-1.46355 5.94177,-1.46355c2.2266,0 4.20302,0.48785 5.92925,1.46355c1.72624,0.9757 3.07304,2.31416 4.0404,4.01539c0.9757,1.70122 1.46355,3.6693 1.46355,5.90424v18.61336z"/><path d="M177.05945,202.30348c-3.08555,0 -5.82501,-0.6588 -8.21839,-1.97642c-2.39338,-1.32595 -4.29057,-3.14393 -5.69158,-5.45391c-1.40101,-2.30999 -2.10151,-4.94521 -2.10151,-7.90567c0,-2.91876 0.67966,-5.5248 2.03897,-7.81811c1.35931,-2.29331 3.21481,-4.11962 5.5665,-5.47893c2.36003,-1.35931 4.97857,-2.03896 7.85564,-2.03896c2.83536,0 5.33716,0.64212 7.50539,1.92638c2.17656,1.27592 3.88195,3.01883 5.11618,5.22875c1.24256,2.20992 1.86384,4.71172 1.86384,7.50539c0,0.53372 -0.03335,1.07577 -0.10007,1.62617c-0.05837,0.54205 -0.16679,1.15917 -0.32523,1.85133l-21.48719,0.0544c0.15947,0.59376 0.37105,1.15105 0.63475,1.67186c0.67548,1.31762 1.63868,2.335 2.88958,3.05219c1.25924,0.70884 2.72279,1.06327 4.39065,1.06327c1.50108,0 2.86038,-0.25435 4.07793,-0.76304c1.21755,-0.50869 2.27246,-1.27174 3.16477,-2.28914l4.67836,4.69087c-1.41769,1.65952 -3.15226,2.91877 -5.20373,3.77771c-2.04314,0.85061 -4.26139,1.27592 -6.65478,1.27592zM182.67603,181.91388c-0.54206,-1.17584 -1.33012,-2.07649 -2.36419,-2.70194c-1.03407,-0.63379 -2.30165,-0.95068 -3.80273,-0.95068c-1.58447,0 -2.96462,0.35859 -4.14047,1.07577c-1.17584,0.70884 -2.08066,1.70122 -2.71444,2.97714c-0.23564,0.4807 -0.42688,0.99454 -0.57375,1.54152l14.22905,-0.04239c-0.15683,-0.69911 -0.36799,-1.33225 -0.63347,-1.89941z"/><path d="M215.69245,201.69053v-16.84959c0,-1.74291 -0.55039,-3.1606 -1.65118,-4.25305c-1.09246,-1.10079 -2.51013,-1.65118 -4.25305,-1.65118c-1.13414,0 -2.14737,0.24601 -3.03968,0.73803c-0.89231,0.48368 -1.59281,1.17167 -2.10151,2.06399c-0.50869,0.8923 -0.76304,1.92638 -0.76304,3.10223l-0.00001,0v16.84958l-7.96822,-0.00001v-29.38358h7.96822v2.76796c0.7308,-0.74937 1.57307,-1.38847 2.52683,-1.91733c1.76794,-0.9757 3.76521,-1.46355 5.9918,-1.46355c2.15154,0 4.07793,0.53789 5.77915,1.61366c1.70955,1.07577 3.04802,2.47678 4.01539,4.20302c0.9757,1.7179 1.46355,3.5734 1.46355,5.5665v18.61336z"/><path d="M306.34267,201.69053v-22.39105l-6.86743,0v-6.99251h6.86743v-12.2338h7.98073v12.2338h6.86742v6.99252l-6.86742,0v22.39106z"/></g></g></g></svg>